<?xml version="1.0" standalone="no"?>
<!DOCTYPE svg PUBLIC "-//W3C//DTD SVG 20010904//EN"
 "http://www.w3.org/TR/2001/REC-SVG-20010904/DTD/svg10.dtd">
<svg version="1.0" xmlns="http://www.w3.org/2000/svg"
 width="360.000000pt" height="360.000000pt" viewBox="0 0 360.000000 360.000000"
 preserveAspectRatio="xMidYMid meet">
<metadata>
Created by potrace 1.14, written by Peter Selinger 2001-2017
</metadata>
<g transform="translate(0.000000,360.000000) scale(0.100000,-0.100000)"
fill="#000000" stroke="none">
<path d="M0 1800 l0 -1800 1800 0 1800 0 0 1800 0 1800 -1800 0 -1800 0 0
-1800z m1800 1045 c0 -96 4 -145 11 -145 6 0 265 56 577 125 311 69 573 125
582 125 9 0 47 -24 83 -52 l67 -53 0 -76 c0 -71 -2 -77 -22 -82 -13 -3 -299
-67 -636 -141 -337 -75 -624 -139 -638 -142 l-24 -6 0 146 c0 106 -3 146 -12
146 -6 0 -297 -63 -645 -140 -348 -77 -640 -140 -648 -140 -13 0 -15 24 -15
144 l0 145 78 17 c637 143 1220 272 1230 273 9 1 12 -34 12 -144z m1320 -600
l0 -144 -77 -17 c-43 -9 -242 -53 -443 -98 l-365 -81 -3 -647 -2 -648 -145 0
-145 0 0 760 c0 710 1 761 17 767 31 12 1107 251 1136 252 l27 1 0 -145z
m-1460 -761 l0 -874 -145 0 -145 0 0 701 c0 662 -1 700 -17 695 -42 -12 -710
-156 -724 -156 -9 0 -46 24 -82 52 l-67 53 0 77 0 77 78 17 c627 140 1088 240
1095 237 4 -2 7 -398 7 -879z"/>
</g>
</svg>
